# xmcd
#
# Track frame offsets:
#	150
#	10757
#	30410
#	44320
#	59837
#	75732
#	87230
#	98687
#	111897
#	131757
#	146285
#	157457
#	173517
#	186340
#	198915
#	214817
#	226597
#	245585
#
# Disc length: 3518
#
# Revision: 3
# Processed by: cddbd v1.5.1PL0 Copyright (c) Steve Scherf et al.
# Submitted via: EasyCDDAExtractor 5.0.6
# Normalized: r2:DSETVAR1
#
DISCID=f00dbc12
DTITLE=Various Artist - The Country Greats Disc 4
DYEAR=1900
DGENRE=Country
TTITLE0=Willie Nelson - Blue eyes cryin in the rain
TTITLE1=Willie Nelson - Georgia on my mind
TTITLE2=Willie Nelson - My heroes have always been cowboys
TTITLE3=Willie Nelson - Mamas don't let your babies grow up to be cowboys
TTITLE4=Willie Nelson - Always on my mind
TTITLE5=Willie Nelson - On the road again
TTITLE6=Marty Robbins - A white sport coat
TTITLE7=Marty Robbins - Devil Woman
TTITLE8=Marty Robbins - El Paso
TTITLE9=Marty Robbins - Don't Worry
TTITLE10=Marty Robbins - Singing the blues
TTITLE11=Marty Robbins - My woman,my woman my wife
TTITLE12=Don Williams - You're my best friend
TTITLE13=Don Williams - Some broken hearts never mend
TTITLE14=Don Williams - Till the rivers all run dry
TTITLE15=Don Williams - The ties that bind
TTITLE16=Don Williams - Good old boys like me
TTITLE17=Don Williams - I Believe in you
EXTD=
EXTT0=
EXTT1=
EXTT2=
EXTT3=
EXTT4=
EXTT5=
EXTT6=
EXTT7=
EXTT8=
EXTT9=
EXTT10=
EXTT11=
EXTT12=
EXTT13=
EXTT14=
EXTT15=
EXTT16=
EXTT17=
PLAYORDER=
